<?xml version="1.0" encoding="UTF-8" standalone="no"?><!-- Generator: Gravit.io --><svg xmlns="http://www.w3.org/2000/svg" xmlns:xlink="http://www.w3.org/1999/xlink" style="isolation:isolate" viewBox="0 0 375 160" width="375pt" height="160pt"><linearGradient id="_lgradient_3" x1="0" y1="0" x2="0.9999999999999998" y2="1"><stop offset="0%" stop-opacity="1" style="stop-color:rgb(162,57,202)"/><stop offset="100%" stop-opacity="1" style="stop-color:rgb(71,23,246)"/></linearGradient><path d=" M 80 32 C 106.492 32 128 53.508 128 80 C 128 106.492 106.492 128 80 128 C 53.508 128 32 106.492 32 80" fill="none" vector-effect="non-scaling-stroke" stroke-width="32" stroke="url(#_lgradient_3)" stroke-linejoin="round" stroke-linecap="round" stroke-miterlimit="3"/><circle vector-effect="non-scaling-stroke" cx="48.00000000000003" cy="48.000000000000014" r="16.000000000000004" fill="rgb(245,0,87)"/><path d=" M 211.617 68.798 L 217.808 78.98 L 217.808 78.98 Q 213.735 82.482 208.685 84.356 L 208.685 84.356 L 208.685 84.356 Q 203.635 86.229 198.219 86.229 L 198.219 86.229 L 198.219 86.229 Q 194.065 86.229 190.216 85.15 L 190.216 85.15 L 190.216 85.15 Q 186.367 84.071 183.007 82.095 L 183.007 82.095 L 183.007 82.095 Q 179.648 80.12 176.878 77.351 L 176.878 77.351 L 176.878 77.351 Q 174.109 74.582 172.134 71.222 L 172.134 71.222 L 172.134 71.222 Q 170.158 67.862 169.079 64.013 L 169.079 64.013 L 169.079 64.013 Q 168 60.165 168 56.011 L 168 56.011 L 168 56.011 Q 168 51.857 169.079 47.988 L 169.079 47.988 L 169.079 47.988 Q 170.158 44.119 172.134 40.759 L 172.134 40.759 L 172.134 40.759 Q 174.109 37.399 176.878 34.629 L 176.878 34.629 L 176.878 34.629 Q 179.648 31.86 183.007 29.885 L 183.007 29.885 L 183.007 29.885 Q 186.367 27.91 190.216 26.83 L 190.216 26.83 L 190.216 26.83 Q 194.065 25.751 198.219 25.751 L 198.219 25.751 L 198.219 25.751 Q 203.635 25.751 208.685 27.604 L 208.685 27.604 L 208.685 27.604 Q 213.735 29.457 217.808 33 L 217.808 33 L 211.617 43.182 L 211.617 43.182 Q 209.052 40.413 205.549 38.926 L 205.549 38.926 L 205.549 38.926 Q 202.047 37.44 198.219 37.44 L 198.219 37.44 L 198.219 37.44 Q 194.35 37.44 190.969 38.906 L 190.969 38.906 L 190.969 38.906 Q 187.589 40.372 185.064 42.876 L 185.064 42.876 L 185.064 42.876 Q 182.539 45.381 181.073 48.782 L 181.073 48.782 L 181.073 48.782 Q 179.607 52.182 179.607 56.011 L 179.607 56.011 L 179.607 56.011 Q 179.607 59.839 181.073 63.199 L 181.073 63.199 L 181.073 63.199 Q 182.539 66.559 185.064 69.084 L 185.064 69.084 L 185.064 69.084 Q 187.589 71.609 190.969 73.075 L 190.969 73.075 L 190.969 73.075 Q 194.35 74.541 198.219 74.541 L 198.219 74.541 L 198.219 74.541 Q 202.047 74.541 205.549 73.054 L 205.549 73.054 L 205.549 73.054 Q 209.052 71.568 211.617 68.798 L 211.617 68.798 Z  M 264.032 62.771 L 264.032 62.771 L 264.032 62.771 Q 264.032 67.658 262.28 71.873 L 262.28 71.873 L 262.28 71.873 Q 260.529 76.088 257.516 79.163 L 257.516 79.163 L 257.516 79.163 Q 254.502 82.238 250.45 84.01 L 250.45 84.01 L 250.45 84.01 Q 246.397 85.781 241.755 85.781 L 241.755 85.781 L 241.755 85.781 Q 237.153 85.781 233.1 84.01 L 233.1 84.01 L 233.1 84.01 Q 229.048 82.238 226.014 79.163 L 226.014 79.163 L 226.014 79.163 Q 222.98 76.088 221.229 71.873 L 221.229 71.873 L 221.229 71.873 Q 219.478 67.658 219.478 62.771 L 219.478 62.771 L 219.478 62.771 Q 219.478 57.802 221.229 53.567 L 221.229 53.567 L 221.229 53.567 Q 222.98 49.332 226.014 46.257 L 226.014 46.257 L 226.014 46.257 Q 229.048 43.182 233.1 41.431 L 233.1 41.431 L 233.1 41.431 Q 237.153 39.679 241.755 39.679 L 241.755 39.679 L 241.755 39.679 Q 246.397 39.679 250.45 41.329 L 250.45 41.329 L 250.45 41.329 Q 254.502 42.978 257.516 46.012 L 257.516 46.012 L 257.516 46.012 Q 260.529 49.046 262.28 53.302 L 262.28 53.302 L 262.28 53.302 Q 264.032 57.558 264.032 62.771 Z  M 252.832 62.771 L 252.832 62.771 L 252.832 62.771 Q 252.832 60.083 251.956 57.904 L 251.956 57.904 L 251.956 57.904 Q 251.081 55.725 249.574 54.158 L 249.574 54.158 L 249.574 54.158 Q 248.067 52.59 246.051 51.755 L 246.051 51.755 L 246.051 51.755 Q 244.035 50.92 241.755 50.92 L 241.755 50.92 L 241.755 50.92 Q 239.474 50.92 237.458 51.755 L 237.458 51.755 L 237.458 51.755 Q 235.442 52.59 233.956 54.158 L 233.956 54.158 L 233.956 54.158 Q 232.469 55.725 231.614 57.904 L 231.614 57.904 L 231.614 57.904 Q 230.759 60.083 230.759 62.771 L 230.759 62.771 L 230.759 62.771 Q 230.759 65.296 231.614 67.455 L 231.614 67.455 L 231.614 67.455 Q 232.469 69.613 233.956 71.201 L 233.956 71.201 L 233.956 71.201 Q 235.442 72.79 237.458 73.706 L 237.458 73.706 L 237.458 73.706 Q 239.474 74.622 241.755 74.622 L 241.755 74.622 L 241.755 74.622 Q 244.035 74.622 246.051 73.767 L 246.051 73.767 L 246.051 73.767 Q 248.067 72.912 249.574 71.364 L 249.574 71.364 L 249.574 71.364 Q 251.081 69.817 251.956 67.617 L 251.956 67.617 L 251.956 67.617 Q 252.832 65.418 252.832 62.771 Z  M 312.333 24 L 312.333 84.967 L 309.645 84.967 L 305.328 78.98 L 305.328 78.98 Q 303.739 80.405 301.968 81.647 L 301.968 81.647 L 301.968 81.647 Q 300.196 82.89 298.241 83.806 L 298.241 83.806 L 298.241 83.806 Q 296.287 84.722 294.23 85.252 L 294.23 85.252 L 294.23 85.252 Q 292.173 85.781 290.055 85.781 L 290.055 85.781 L 290.055 85.781 Q 285.453 85.781 281.401 84.05 L 281.401 84.05 L 281.401 84.05 Q 277.349 82.319 274.315 79.245 L 274.315 79.245 L 274.315 79.245 Q 271.281 76.17 269.53 71.955 L 269.53 71.955 L 269.53 71.955 Q 267.778 67.74 267.778 62.771 L 267.778 62.771 L 267.778 62.771 Q 267.778 57.843 269.53 53.608 L 269.53 53.608 L 269.53 53.608 Q 271.281 49.372 274.315 46.277 L 274.315 46.277 L 274.315 46.277 Q 277.349 43.182 281.401 41.431 L 281.401 41.431 L 281.401 41.431 Q 285.453 39.679 290.055 39.679 L 290.055 39.679 L 290.055 39.679 Q 291.522 39.679 293.09 39.924 L 293.09 39.924 L 293.09 39.924 Q 294.658 40.168 296.144 40.718 L 296.144 40.718 L 296.144 40.718 Q 297.631 41.268 298.934 42.164 L 298.934 42.164 L 298.934 42.164 Q 300.237 43.06 301.133 44.363 L 301.133 44.363 L 301.133 24 L 312.333 24 Z  M 301.133 62.771 L 301.133 62.771 L 301.133 62.771 Q 301.133 60.49 300.257 58.352 L 300.257 58.352 L 300.257 58.352 Q 299.382 56.214 297.875 54.565 L 297.875 54.565 L 297.875 54.565 Q 296.368 52.915 294.352 51.918 L 294.352 51.918 L 294.352 51.918 Q 292.336 50.92 290.055 50.92 L 290.055 50.92 L 290.055 50.92 Q 287.775 50.92 285.759 51.734 L 285.759 51.734 L 285.759 51.734 Q 283.743 52.549 282.256 54.076 L 282.256 54.076 L 282.256 54.076 Q 280.77 55.603 279.915 57.802 L 279.915 57.802 L 279.915 57.802 Q 279.06 60.002 279.06 62.771 L 279.06 62.771 L 279.06 62.771 Q 279.06 65.174 279.915 67.332 L 279.915 67.332 L 279.915 67.332 Q 280.77 69.491 282.256 71.12 L 282.256 71.12 L 282.256 71.12 Q 283.743 72.749 285.759 73.686 L 285.759 73.686 L 285.759 73.686 Q 287.775 74.622 290.055 74.622 L 290.055 74.622 L 290.055 74.622 Q 292.336 74.622 294.352 73.624 L 294.352 73.624 L 294.352 73.624 Q 296.368 72.627 297.875 70.977 L 297.875 70.977 L 297.875 70.977 Q 299.382 69.328 300.257 67.19 L 300.257 67.19 L 300.257 67.19 Q 301.133 65.052 301.133 62.771 Z  M 359.004 49.169 L 338.153 74.296 L 338.153 74.296 Q 338.804 74.5 339.456 74.561 L 339.456 74.561 L 339.456 74.561 Q 340.108 74.622 340.759 74.622 L 340.759 74.622 L 340.759 74.622 Q 342.388 74.622 343.895 74.174 L 343.895 74.174 L 343.895 74.174 Q 345.402 73.726 346.726 72.891 L 346.726 72.891 L 346.726 72.891 Q 348.049 72.057 349.088 70.855 L 349.088 70.855 L 349.088 70.855 Q 350.126 69.654 350.778 68.188 L 350.778 68.188 L 358.923 76.373 L 358.923 76.373 Q 357.375 78.573 355.359 80.324 L 355.359 80.324 L 355.359 80.324 Q 353.344 82.075 351.002 83.297 L 351.002 83.297 L 351.002 83.297 Q 348.66 84.519 346.074 85.15 L 346.074 85.15 L 346.074 85.15 Q 343.488 85.781 340.759 85.781 L 340.759 85.781 L 340.759 85.781 Q 336.157 85.781 332.105 84.071 L 332.105 84.071 L 332.105 84.071 Q 328.053 82.36 325.019 79.306 L 325.019 79.306 L 325.019 79.306 Q 321.985 76.251 320.233 72.036 L 320.233 72.036 L 320.233 72.036 Q 318.482 67.821 318.482 62.771 L 318.482 62.771 L 318.482 62.771 Q 318.482 57.599 320.233 53.323 L 320.233 53.323 L 320.233 53.323 Q 321.985 49.046 325.019 46.033 L 325.019 46.033 L 325.019 46.033 Q 328.053 43.019 332.105 41.349 L 332.105 41.349 L 332.105 41.349 Q 336.157 39.679 340.759 39.679 L 340.759 39.679 L 340.759 39.679 Q 343.488 39.679 346.094 40.331 L 346.094 40.331 L 346.094 40.331 Q 348.701 40.983 351.043 42.204 L 351.043 42.204 L 351.043 42.204 Q 353.384 43.426 355.421 45.198 L 355.421 45.198 L 355.421 45.198 Q 357.457 46.969 359.004 49.169 L 359.004 49.169 Z  M 330.904 68.554 L 343.854 51.368 L 343.854 51.368 Q 343.081 51.083 342.327 51.001 L 342.327 51.001 L 342.327 51.001 Q 341.574 50.92 340.759 50.92 L 340.759 50.92 L 340.759 50.92 Q 338.479 50.92 336.463 51.755 L 336.463 51.755 L 336.463 51.755 Q 334.447 52.59 332.96 54.137 L 332.96 54.137 L 332.96 54.137 Q 331.474 55.685 330.618 57.864 L 330.618 57.864 L 330.618 57.864 Q 329.763 60.042 329.763 62.771 L 329.763 62.771 L 329.763 62.771 Q 329.763 63.382 329.824 64.156 L 329.824 64.156 L 329.824 64.156 Q 329.885 64.93 330.028 65.724 L 330.028 65.724 L 330.028 65.724 Q 330.171 66.518 330.374 67.251 L 330.374 67.251 L 330.374 67.251 Q 330.578 67.984 330.904 68.554 L 330.904 68.554 Z " fill="rgb(14,11,22)"/><path d=" M 210.246 93.135 L 210.246 123.323 L 210.246 123.323 Q 210.246 125.947 209.258 128.261 L 209.258 128.261 L 209.258 128.261 Q 208.27 130.576 206.546 132.3 L 206.546 132.3 L 206.546 132.3 Q 204.821 134.025 202.507 135.012 L 202.507 135.012 L 202.507 135.012 Q 200.193 136 197.569 136 L 197.569 136 L 197.569 136 Q 195.211 136 193.044 135.175 L 193.044 135.175 L 193.044 135.175 Q 190.877 134.349 189.138 132.757 L 189.138 132.757 L 189.138 132.757 Q 187.398 134.349 185.217 135.175 L 185.217 135.175 L 185.217 135.175 Q 183.035 136 180.677 136 L 180.677 136 L 180.677 136 Q 178.053 136 175.739 135.012 L 175.739 135.012 L 175.739 135.012 Q 173.424 134.025 171.7 132.3 L 171.7 132.3 L 171.7 132.3 Q 169.975 130.576 168.988 128.261 L 168.988 128.261 L 168.988 128.261 Q 168 125.947 168 123.323 L 168 123.323 L 168 93.135 L 176.461 93.135 L 176.461 123.323 L 176.461 123.323 Q 176.461 124.208 176.785 124.989 L 176.785 124.989 L 176.785 124.989 Q 177.109 125.77 177.684 126.345 L 177.684 126.345 L 177.684 126.345 Q 178.259 126.92 179.026 127.244 L 179.026 127.244 L 179.026 127.244 Q 179.792 127.569 180.677 127.569 L 180.677 127.569 L 180.677 127.569 Q 181.561 127.569 182.328 127.244 L 182.328 127.244 L 182.328 127.244 Q 183.094 126.92 183.669 126.345 L 183.669 126.345 L 183.669 126.345 Q 184.244 125.77 184.568 124.989 L 184.568 124.989 L 184.568 124.989 Q 184.892 124.208 184.892 123.323 L 184.892 123.323 L 184.892 93.135 L 193.353 93.135 L 193.353 123.323 L 193.353 123.323 Q 193.353 124.208 193.678 124.989 L 193.678 124.989 L 193.678 124.989 Q 194.002 125.77 194.577 126.345 L 194.577 126.345 L 194.577 126.345 Q 195.152 126.92 195.918 127.244 L 195.918 127.244 L 195.918 127.244 Q 196.685 127.569 197.569 127.569 L 197.569 127.569 L 197.569 127.569 Q 198.453 127.569 199.22 127.244 L 199.22 127.244 L 199.22 127.244 Q 199.986 126.92 200.561 126.345 L 200.561 126.345 L 200.561 126.345 Q 201.136 125.77 201.475 124.989 L 201.475 124.989 L 201.475 124.989 Q 201.814 124.208 201.814 123.323 L 201.814 123.323 L 201.814 93.135 L 210.246 93.135 Z  M 226.43 95.258 L 226.43 95.258 L 226.43 95.258 Q 226.43 96.378 226.003 97.351 L 226.003 97.351 L 226.003 97.351 Q 225.575 98.324 224.838 99.046 L 224.838 99.046 L 224.838 99.046 Q 224.101 99.768 223.114 100.196 L 223.114 100.196 L 223.114 100.196 Q 222.126 100.623 221.006 100.623 L 221.006 100.623 L 221.006 100.623 Q 219.886 100.623 218.898 100.196 L 218.898 100.196 L 218.898 100.196 Q 217.911 99.768 217.188 99.046 L 217.188 99.046 L 217.188 99.046 Q 216.466 98.324 216.039 97.351 L 216.039 97.351 L 216.039 97.351 Q 215.611 96.378 215.611 95.258 L 215.611 95.258 L 215.611 95.258 Q 215.611 94.167 216.039 93.18 L 216.039 93.18 L 216.039 93.18 Q 216.466 92.192 217.188 91.47 L 217.188 91.47 L 217.188 91.47 Q 217.911 90.747 218.898 90.32 L 218.898 90.32 L 218.898 90.32 Q 219.886 89.892 221.006 89.892 L 221.006 89.892 L 221.006 89.892 Q 222.126 89.892 223.114 90.32 L 223.114 90.32 L 223.114 90.32 Q 224.101 90.747 224.838 91.47 L 224.838 91.47 L 224.838 91.47 Q 225.575 92.192 226.003 93.18 L 226.003 93.18 L 226.003 93.18 Q 226.43 94.167 226.43 95.258 Z  M 225.045 103.837 L 225.045 135.41 L 216.938 135.41 L 216.938 103.837 L 225.045 103.837 Z  M 253.11 135.41 L 247.008 135.41 L 247.008 135.41 Q 244.089 135.41 241.524 134.305 L 241.524 134.305 L 241.524 134.305 Q 238.96 133.199 237.029 131.268 L 237.029 131.268 L 237.029 131.268 Q 235.098 129.337 233.992 126.773 L 233.992 126.773 L 233.992 126.773 Q 232.887 124.208 232.887 121.289 L 232.887 121.289 L 232.887 111.914 L 228.966 111.914 L 228.966 103.896 L 232.887 103.896 L 232.887 91.278 L 240.905 91.278 L 240.905 103.896 L 253.11 103.896 L 253.11 111.914 L 240.905 111.914 L 240.905 121.289 L 240.905 121.289 Q 240.905 122.557 241.377 123.662 L 241.377 123.662 L 241.377 123.662 Q 241.849 124.768 242.674 125.593 L 242.674 125.593 L 242.674 125.593 Q 243.5 126.419 244.62 126.905 L 244.62 126.905 L 244.62 126.905 Q 245.74 127.392 247.008 127.392 L 247.008 127.392 L 253.11 127.392 L 253.11 135.41 Z  M 265.669 117.368 L 265.669 135.41 L 257.621 135.41 L 257.621 91.278 L 265.669 91.278 L 265.669 105.222 L 265.669 105.222 Q 267.114 104.132 268.647 103.675 L 268.647 103.675 L 268.647 103.675 Q 270.18 103.218 271.772 103.218 L 271.772 103.218 L 271.772 103.218 Q 274.69 103.218 277.255 104.323 L 277.255 104.323 L 277.255 104.323 Q 279.82 105.429 281.721 107.36 L 281.721 107.36 L 281.721 107.36 Q 283.623 109.291 284.728 111.87 L 284.728 111.87 L 284.728 111.87 Q 285.834 114.45 285.834 117.368 L 285.834 117.368 L 285.834 135.41 L 277.727 135.41 L 277.727 117.368 L 277.786 117.368 L 277.786 117.368 Q 277.786 116.13 277.314 115.025 L 277.314 115.025 L 277.314 115.025 Q 276.842 113.919 276.017 113.094 L 276.017 113.094 L 276.017 113.094 Q 275.191 112.268 274.1 111.796 L 274.1 111.796 L 274.1 111.796 Q 273.01 111.325 271.772 111.325 L 271.772 111.325 L 271.772 111.325 Q 270.504 111.325 269.384 111.796 L 269.384 111.796 L 269.384 111.796 Q 268.263 112.268 267.438 113.094 L 267.438 113.094 L 267.438 113.094 Q 266.612 113.919 266.141 115.025 L 266.141 115.025 L 266.141 115.025 Q 265.669 116.13 265.669 117.368 L 265.669 117.368 Z  M 325.75 93.135 L 325.75 118.518 L 325.75 118.518 Q 325.75 122.026 324.424 125.107 L 324.424 125.107 L 324.424 125.107 Q 323.097 128.188 320.798 130.472 L 320.798 130.472 L 320.798 130.472 Q 318.498 132.757 315.417 134.084 L 315.417 134.084 L 315.417 134.084 Q 312.337 135.41 308.829 135.41 L 308.829 135.41 L 308.829 135.41 Q 305.32 135.41 302.24 134.084 L 302.24 134.084 L 302.24 134.084 Q 299.159 132.757 296.874 130.472 L 296.874 130.472 L 296.874 130.472 Q 294.589 128.188 293.263 125.107 L 293.263 125.107 L 293.263 125.107 Q 291.936 122.026 291.936 118.518 L 291.936 118.518 L 291.936 93.135 L 300.368 93.135 L 300.368 118.518 L 300.368 118.518 Q 300.368 120.257 301.031 121.79 L 301.031 121.79 L 301.031 121.79 Q 301.694 123.323 302.844 124.473 L 302.844 124.473 L 302.844 124.473 Q 303.994 125.623 305.541 126.286 L 305.541 126.286 L 305.541 126.286 Q 307.089 126.949 308.829 126.949 L 308.829 126.949 L 308.829 126.949 Q 310.568 126.949 312.116 126.286 L 312.116 126.286 L 312.116 126.286 Q 313.663 125.623 314.813 124.473 L 314.813 124.473 L 314.813 124.473 Q 315.963 123.323 316.626 121.79 L 316.626 121.79 L 316.626 121.79 Q 317.289 120.257 317.289 118.518 L 317.289 118.518 L 317.289 93.135 L 325.75 93.135 Z  M 348.981 135.41 L 348.981 135.41 L 330.585 135.41 L 330.585 127.392 L 348.981 127.392 L 348.981 127.392 Q 349.807 127.392 350.396 126.802 L 350.396 126.802 L 350.396 126.802 Q 350.986 126.212 350.986 125.387 L 350.986 125.387 L 350.986 125.387 Q 350.986 124.532 350.396 124.267 L 350.396 124.267 L 350.396 124.267 Q 349.807 124.001 348.981 124.001 L 348.981 124.001 L 340.609 124.001 L 340.609 124.001 Q 338.515 124.001 336.688 123.205 L 336.688 123.205 L 336.688 123.205 Q 334.86 122.409 333.504 121.039 L 333.504 121.039 L 333.504 121.039 Q 332.148 119.668 331.366 117.84 L 331.366 117.84 L 331.366 117.84 Q 330.585 116.012 330.585 113.919 L 330.585 113.919 L 330.585 113.919 Q 330.585 111.826 331.366 109.998 L 331.366 109.998 L 331.366 109.998 Q 332.148 108.17 333.504 106.814 L 333.504 106.814 L 333.504 106.814 Q 334.86 105.458 336.688 104.677 L 336.688 104.677 L 336.688 104.677 Q 338.515 103.896 340.609 103.896 L 340.609 103.896 L 356.911 103.896 L 356.911 111.914 L 340.609 111.914 L 340.609 111.914 Q 339.783 111.914 339.194 112.504 L 339.194 112.504 L 339.194 112.504 Q 338.604 113.094 338.604 113.919 L 338.604 113.919 L 338.604 113.919 Q 338.604 114.774 339.194 115.378 L 339.194 115.378 L 339.194 115.378 Q 339.783 115.983 340.609 115.983 L 340.609 115.983 L 348.981 115.983 L 348.981 115.983 Q 351.045 115.983 352.872 116.676 L 352.872 116.676 L 352.872 116.676 Q 354.7 117.368 356.056 118.606 L 356.056 118.606 L 356.056 118.606 Q 357.412 119.845 358.208 121.584 L 358.208 121.584 L 358.208 121.584 Q 359.004 123.323 359.004 125.387 L 359.004 125.387 L 359.004 125.387 Q 359.004 127.48 358.208 129.293 L 358.208 129.293 L 358.208 129.293 Q 357.412 131.106 356.056 132.477 L 356.056 132.477 L 356.056 132.477 Q 354.7 133.848 352.872 134.629 L 352.872 134.629 L 352.872 134.629 Q 351.045 135.41 348.981 135.41 Z " fill="rgb(14,11,22)"/></svg>