<?xml version="1.0" encoding="UTF-8" standalone="no"?><!-- Generator: Gravit.io --><svg xmlns="http://www.w3.org/2000/svg" xmlns:xlink="http://www.w3.org/1999/xlink" style="isolation:isolate" viewBox="0 0 343 128" width="343pt" height="128pt"><linearGradient id="_lgradient_1" x1="0" y1="0" x2="0.9999999999999998" y2="1"><stop offset="0%" stop-opacity="1" style="stop-color:rgb(162,57,202)"/><stop offset="100%" stop-opacity="1" style="stop-color:rgb(71,23,246)"/></linearGradient><path d=" M 64 16 C 90.492 16 112 37.508 112 64 C 112 90.492 90.492 112 64 112 C 37.508 112 16 90.492 16 64" fill="none" vector-effect="non-scaling-stroke" stroke-width="32" stroke="url(#_lgradient_1)" stroke-linejoin="round" stroke-linecap="round" stroke-miterlimit="3"/><circle vector-effect="non-scaling-stroke" cx="32.00000000000002" cy="32.000000000000014" r="16" fill="rgb(245,0,87)"/><path d=" M 195.617 52.798 L 201.808 62.98 L 201.808 62.98 Q 197.735 66.482 192.685 68.356 L 192.685 68.356 L 192.685 68.356 Q 187.635 70.229 182.219 70.229 L 182.219 70.229 L 182.219 70.229 Q 178.065 70.229 174.216 69.15 L 174.216 69.15 L 174.216 69.15 Q 170.367 68.071 167.007 66.095 L 167.007 66.095 L 167.007 66.095 Q 163.648 64.12 160.878 61.351 L 160.878 61.351 L 160.878 61.351 Q 158.109 58.582 156.134 55.222 L 156.134 55.222 L 156.134 55.222 Q 154.158 51.862 153.079 48.013 L 153.079 48.013 L 153.079 48.013 Q 152 44.165 152 40.011 L 152 40.011 L 152 40.011 Q 152 35.857 153.079 31.988 L 153.079 31.988 L 153.079 31.988 Q 154.158 28.119 156.134 24.759 L 156.134 24.759 L 156.134 24.759 Q 158.109 21.399 160.878 18.629 L 160.878 18.629 L 160.878 18.629 Q 163.648 15.86 167.007 13.885 L 167.007 13.885 L 167.007 13.885 Q 170.367 11.91 174.216 10.83 L 174.216 10.83 L 174.216 10.83 Q 178.065 9.751 182.219 9.751 L 182.219 9.751 L 182.219 9.751 Q 187.635 9.751 192.685 11.604 L 192.685 11.604 L 192.685 11.604 Q 197.735 13.457 201.808 17 L 201.808 17 L 195.617 27.182 L 195.617 27.182 Q 193.052 24.413 189.549 22.926 L 189.549 22.926 L 189.549 22.926 Q 186.047 21.44 182.219 21.44 L 182.219 21.44 L 182.219 21.44 Q 178.35 21.44 174.969 22.906 L 174.969 22.906 L 174.969 22.906 Q 171.589 24.372 169.064 26.876 L 169.064 26.876 L 169.064 26.876 Q 166.539 29.381 165.073 32.782 L 165.073 32.782 L 165.073 32.782 Q 163.607 36.182 163.607 40.011 L 163.607 40.011 L 163.607 40.011 Q 163.607 43.839 165.073 47.199 L 165.073 47.199 L 165.073 47.199 Q 166.539 50.559 169.064 53.084 L 169.064 53.084 L 169.064 53.084 Q 171.589 55.609 174.969 57.075 L 174.969 57.075 L 174.969 57.075 Q 178.35 58.541 182.219 58.541 L 182.219 58.541 L 182.219 58.541 Q 186.047 58.541 189.549 57.054 L 189.549 57.054 L 189.549 57.054 Q 193.052 55.568 195.617 52.798 L 195.617 52.798 Z  M 248.032 46.771 L 248.032 46.771 L 248.032 46.771 Q 248.032 51.658 246.28 55.873 L 246.28 55.873 L 246.28 55.873 Q 244.529 60.088 241.516 63.163 L 241.516 63.163 L 241.516 63.163 Q 238.502 66.238 234.45 68.01 L 234.45 68.01 L 234.45 68.01 Q 230.397 69.781 225.755 69.781 L 225.755 69.781 L 225.755 69.781 Q 221.153 69.781 217.1 68.01 L 217.1 68.01 L 217.1 68.01 Q 213.048 66.238 210.014 63.163 L 210.014 63.163 L 210.014 63.163 Q 206.98 60.088 205.229 55.873 L 205.229 55.873 L 205.229 55.873 Q 203.478 51.658 203.478 46.771 L 203.478 46.771 L 203.478 46.771 Q 203.478 41.802 205.229 37.567 L 205.229 37.567 L 205.229 37.567 Q 206.98 33.332 210.014 30.257 L 210.014 30.257 L 210.014 30.257 Q 213.048 27.182 217.1 25.431 L 217.1 25.431 L 217.1 25.431 Q 221.153 23.679 225.755 23.679 L 225.755 23.679 L 225.755 23.679 Q 230.397 23.679 234.45 25.329 L 234.45 25.329 L 234.45 25.329 Q 238.502 26.978 241.516 30.012 L 241.516 30.012 L 241.516 30.012 Q 244.529 33.046 246.28 37.302 L 246.28 37.302 L 246.28 37.302 Q 248.032 41.558 248.032 46.771 Z  M 236.832 46.771 L 236.832 46.771 L 236.832 46.771 Q 236.832 44.083 235.956 41.904 L 235.956 41.904 L 235.956 41.904 Q 235.081 39.725 233.574 38.158 L 233.574 38.158 L 233.574 38.158 Q 232.067 36.59 230.051 35.755 L 230.051 35.755 L 230.051 35.755 Q 228.035 34.92 225.755 34.92 L 225.755 34.92 L 225.755 34.92 Q 223.474 34.92 221.458 35.755 L 221.458 35.755 L 221.458 35.755 Q 219.442 36.59 217.956 38.158 L 217.956 38.158 L 217.956 38.158 Q 216.469 39.725 215.614 41.904 L 215.614 41.904 L 215.614 41.904 Q 214.759 44.083 214.759 46.771 L 214.759 46.771 L 214.759 46.771 Q 214.759 49.296 215.614 51.455 L 215.614 51.455 L 215.614 51.455 Q 216.469 53.613 217.956 55.201 L 217.956 55.201 L 217.956 55.201 Q 219.442 56.79 221.458 57.706 L 221.458 57.706 L 221.458 57.706 Q 223.474 58.622 225.755 58.622 L 225.755 58.622 L 225.755 58.622 Q 228.035 58.622 230.051 57.767 L 230.051 57.767 L 230.051 57.767 Q 232.067 56.912 233.574 55.364 L 233.574 55.364 L 233.574 55.364 Q 235.081 53.817 235.956 51.617 L 235.956 51.617 L 235.956 51.617 Q 236.832 49.418 236.832 46.771 Z  M 296.333 8 L 296.333 68.967 L 293.645 68.967 L 289.328 62.98 L 289.328 62.98 Q 287.739 64.405 285.968 65.647 L 285.968 65.647 L 285.968 65.647 Q 284.196 66.89 282.241 67.806 L 282.241 67.806 L 282.241 67.806 Q 280.287 68.722 278.23 69.252 L 278.23 69.252 L 278.23 69.252 Q 276.173 69.781 274.055 69.781 L 274.055 69.781 L 274.055 69.781 Q 269.453 69.781 265.401 68.05 L 265.401 68.05 L 265.401 68.05 Q 261.349 66.319 258.315 63.245 L 258.315 63.245 L 258.315 63.245 Q 255.281 60.17 253.53 55.955 L 253.53 55.955 L 253.53 55.955 Q 251.778 51.74 251.778 46.771 L 251.778 46.771 L 251.778 46.771 Q 251.778 41.843 253.53 37.608 L 253.53 37.608 L 253.53 37.608 Q 255.281 33.372 258.315 30.277 L 258.315 30.277 L 258.315 30.277 Q 261.349 27.182 265.401 25.431 L 265.401 25.431 L 265.401 25.431 Q 269.453 23.679 274.055 23.679 L 274.055 23.679 L 274.055 23.679 Q 275.522 23.679 277.09 23.924 L 277.09 23.924 L 277.09 23.924 Q 278.658 24.168 280.144 24.718 L 280.144 24.718 L 280.144 24.718 Q 281.631 25.268 282.934 26.164 L 282.934 26.164 L 282.934 26.164 Q 284.237 27.06 285.133 28.363 L 285.133 28.363 L 285.133 8 L 296.333 8 Z  M 285.133 46.771 L 285.133 46.771 L 285.133 46.771 Q 285.133 44.49 284.257 42.352 L 284.257 42.352 L 284.257 42.352 Q 283.382 40.214 281.875 38.565 L 281.875 38.565 L 281.875 38.565 Q 280.368 36.915 278.352 35.918 L 278.352 35.918 L 278.352 35.918 Q 276.336 34.92 274.055 34.92 L 274.055 34.92 L 274.055 34.92 Q 271.775 34.92 269.759 35.734 L 269.759 35.734 L 269.759 35.734 Q 267.743 36.549 266.256 38.076 L 266.256 38.076 L 266.256 38.076 Q 264.77 39.603 263.915 41.802 L 263.915 41.802 L 263.915 41.802 Q 263.06 44.002 263.06 46.771 L 263.06 46.771 L 263.06 46.771 Q 263.06 49.174 263.915 51.332 L 263.915 51.332 L 263.915 51.332 Q 264.77 53.491 266.256 55.12 L 266.256 55.12 L 266.256 55.12 Q 267.743 56.749 269.759 57.686 L 269.759 57.686 L 269.759 57.686 Q 271.775 58.622 274.055 58.622 L 274.055 58.622 L 274.055 58.622 Q 276.336 58.622 278.352 57.624 L 278.352 57.624 L 278.352 57.624 Q 280.368 56.627 281.875 54.977 L 281.875 54.977 L 281.875 54.977 Q 283.382 53.328 284.257 51.19 L 284.257 51.19 L 284.257 51.19 Q 285.133 49.052 285.133 46.771 Z  M 343.004 33.169 L 322.153 58.296 L 322.153 58.296 Q 322.804 58.5 323.456 58.561 L 323.456 58.561 L 323.456 58.561 Q 324.108 58.622 324.759 58.622 L 324.759 58.622 L 324.759 58.622 Q 326.388 58.622 327.895 58.174 L 327.895 58.174 L 327.895 58.174 Q 329.402 57.726 330.726 56.891 L 330.726 56.891 L 330.726 56.891 Q 332.049 56.057 333.088 54.855 L 333.088 54.855 L 333.088 54.855 Q 334.126 53.654 334.778 52.188 L 334.778 52.188 L 342.923 60.373 L 342.923 60.373 Q 341.375 62.573 339.359 64.324 L 339.359 64.324 L 339.359 64.324 Q 337.344 66.075 335.002 67.297 L 335.002 67.297 L 335.002 67.297 Q 332.66 68.519 330.074 69.15 L 330.074 69.15 L 330.074 69.15 Q 327.488 69.781 324.759 69.781 L 324.759 69.781 L 324.759 69.781 Q 320.157 69.781 316.105 68.071 L 316.105 68.071 L 316.105 68.071 Q 312.053 66.36 309.019 63.306 L 309.019 63.306 L 309.019 63.306 Q 305.985 60.251 304.233 56.036 L 304.233 56.036 L 304.233 56.036 Q 302.482 51.821 302.482 46.771 L 302.482 46.771 L 302.482 46.771 Q 302.482 41.599 304.233 37.323 L 304.233 37.323 L 304.233 37.323 Q 305.985 33.046 309.019 30.033 L 309.019 30.033 L 309.019 30.033 Q 312.053 27.019 316.105 25.349 L 316.105 25.349 L 316.105 25.349 Q 320.157 23.679 324.759 23.679 L 324.759 23.679 L 324.759 23.679 Q 327.488 23.679 330.094 24.331 L 330.094 24.331 L 330.094 24.331 Q 332.701 24.983 335.043 26.204 L 335.043 26.204 L 335.043 26.204 Q 337.384 27.426 339.421 29.198 L 339.421 29.198 L 339.421 29.198 Q 341.457 30.969 343.004 33.169 L 343.004 33.169 Z  M 314.904 52.554 L 327.854 35.368 L 327.854 35.368 Q 327.081 35.083 326.327 35.001 L 326.327 35.001 L 326.327 35.001 Q 325.574 34.92 324.759 34.92 L 324.759 34.92 L 324.759 34.92 Q 322.479 34.92 320.463 35.755 L 320.463 35.755 L 320.463 35.755 Q 318.447 36.59 316.96 38.137 L 316.96 38.137 L 316.96 38.137 Q 315.474 39.685 314.618 41.864 L 314.618 41.864 L 314.618 41.864 Q 313.763 44.042 313.763 46.771 L 313.763 46.771 L 313.763 46.771 Q 313.763 47.382 313.824 48.156 L 313.824 48.156 L 313.824 48.156 Q 313.885 48.93 314.028 49.724 L 314.028 49.724 L 314.028 49.724 Q 314.171 50.518 314.374 51.251 L 314.374 51.251 L 314.374 51.251 Q 314.578 51.984 314.904 52.554 L 314.904 52.554 Z " fill="rgb(14,11,22)"/><path d=" M 194.246 77.135 L 194.246 107.323 L 194.246 107.323 Q 194.246 109.947 193.258 112.261 L 193.258 112.261 L 193.258 112.261 Q 192.27 114.576 190.546 116.3 L 190.546 116.3 L 190.546 116.3 Q 188.821 118.025 186.507 119.012 L 186.507 119.012 L 186.507 119.012 Q 184.193 120 181.569 120 L 181.569 120 L 181.569 120 Q 179.211 120 177.044 119.175 L 177.044 119.175 L 177.044 119.175 Q 174.877 118.349 173.138 116.757 L 173.138 116.757 L 173.138 116.757 Q 171.398 118.349 169.217 119.175 L 169.217 119.175 L 169.217 119.175 Q 167.035 120 164.677 120 L 164.677 120 L 164.677 120 Q 162.053 120 159.739 119.012 L 159.739 119.012 L 159.739 119.012 Q 157.424 118.025 155.7 116.3 L 155.7 116.3 L 155.7 116.3 Q 153.975 114.576 152.988 112.261 L 152.988 112.261 L 152.988 112.261 Q 152 109.947 152 107.323 L 152 107.323 L 152 77.135 L 160.461 77.135 L 160.461 107.323 L 160.461 107.323 Q 160.461 108.208 160.785 108.989 L 160.785 108.989 L 160.785 108.989 Q 161.109 109.77 161.684 110.345 L 161.684 110.345 L 161.684 110.345 Q 162.259 110.92 163.026 111.244 L 163.026 111.244 L 163.026 111.244 Q 163.792 111.569 164.677 111.569 L 164.677 111.569 L 164.677 111.569 Q 165.561 111.569 166.328 111.244 L 166.328 111.244 L 166.328 111.244 Q 167.094 110.92 167.669 110.345 L 167.669 110.345 L 167.669 110.345 Q 168.244 109.77 168.568 108.989 L 168.568 108.989 L 168.568 108.989 Q 168.892 108.208 168.892 107.323 L 168.892 107.323 L 168.892 77.135 L 177.353 77.135 L 177.353 107.323 L 177.353 107.323 Q 177.353 108.208 177.678 108.989 L 177.678 108.989 L 177.678 108.989 Q 178.002 109.77 178.577 110.345 L 178.577 110.345 L 178.577 110.345 Q 179.152 110.92 179.918 111.244 L 179.918 111.244 L 179.918 111.244 Q 180.685 111.569 181.569 111.569 L 181.569 111.569 L 181.569 111.569 Q 182.453 111.569 183.22 111.244 L 183.22 111.244 L 183.22 111.244 Q 183.986 110.92 184.561 110.345 L 184.561 110.345 L 184.561 110.345 Q 185.136 109.77 185.475 108.989 L 185.475 108.989 L 185.475 108.989 Q 185.814 108.208 185.814 107.323 L 185.814 107.323 L 185.814 77.135 L 194.246 77.135 Z  M 210.43 79.258 L 210.43 79.258 L 210.43 79.258 Q 210.43 80.378 210.003 81.351 L 210.003 81.351 L 210.003 81.351 Q 209.575 82.324 208.838 83.046 L 208.838 83.046 L 208.838 83.046 Q 208.101 83.768 207.114 84.196 L 207.114 84.196 L 207.114 84.196 Q 206.126 84.623 205.006 84.623 L 205.006 84.623 L 205.006 84.623 Q 203.886 84.623 202.898 84.196 L 202.898 84.196 L 202.898 84.196 Q 201.911 83.768 201.188 83.046 L 201.188 83.046 L 201.188 83.046 Q 200.466 82.324 200.039 81.351 L 200.039 81.351 L 200.039 81.351 Q 199.611 80.378 199.611 79.258 L 199.611 79.258 L 199.611 79.258 Q 199.611 78.167 200.039 77.18 L 200.039 77.18 L 200.039 77.18 Q 200.466 76.192 201.188 75.47 L 201.188 75.47 L 201.188 75.47 Q 201.911 74.747 202.898 74.32 L 202.898 74.32 L 202.898 74.32 Q 203.886 73.892 205.006 73.892 L 205.006 73.892 L 205.006 73.892 Q 206.126 73.892 207.114 74.32 L 207.114 74.32 L 207.114 74.32 Q 208.101 74.747 208.838 75.47 L 208.838 75.47 L 208.838 75.47 Q 209.575 76.192 210.003 77.18 L 210.003 77.18 L 210.003 77.18 Q 210.43 78.167 210.43 79.258 Z  M 209.045 87.837 L 209.045 119.41 L 200.938 119.41 L 200.938 87.837 L 209.045 87.837 Z  M 237.11 119.41 L 231.008 119.41 L 231.008 119.41 Q 228.089 119.41 225.524 118.305 L 225.524 118.305 L 225.524 118.305 Q 222.96 117.199 221.029 115.268 L 221.029 115.268 L 221.029 115.268 Q 219.098 113.337 217.992 110.773 L 217.992 110.773 L 217.992 110.773 Q 216.887 108.208 216.887 105.289 L 216.887 105.289 L 216.887 95.914 L 212.966 95.914 L 212.966 87.896 L 216.887 87.896 L 216.887 75.278 L 224.905 75.278 L 224.905 87.896 L 237.11 87.896 L 237.11 95.914 L 224.905 95.914 L 224.905 105.289 L 224.905 105.289 Q 224.905 106.557 225.377 107.662 L 225.377 107.662 L 225.377 107.662 Q 225.849 108.768 226.674 109.593 L 226.674 109.593 L 226.674 109.593 Q 227.5 110.419 228.62 110.905 L 228.62 110.905 L 228.62 110.905 Q 229.74 111.392 231.008 111.392 L 231.008 111.392 L 237.11 111.392 L 237.11 119.41 Z  M 249.669 101.368 L 249.669 119.41 L 241.621 119.41 L 241.621 75.278 L 249.669 75.278 L 249.669 89.222 L 249.669 89.222 Q 251.114 88.132 252.647 87.675 L 252.647 87.675 L 252.647 87.675 Q 254.18 87.218 255.772 87.218 L 255.772 87.218 L 255.772 87.218 Q 258.69 87.218 261.255 88.323 L 261.255 88.323 L 261.255 88.323 Q 263.82 89.429 265.721 91.36 L 265.721 91.36 L 265.721 91.36 Q 267.623 93.291 268.728 95.87 L 268.728 95.87 L 268.728 95.87 Q 269.834 98.45 269.834 101.368 L 269.834 101.368 L 269.834 119.41 L 261.727 119.41 L 261.727 101.368 L 261.786 101.368 L 261.786 101.368 Q 261.786 100.13 261.314 99.025 L 261.314 99.025 L 261.314 99.025 Q 260.842 97.919 260.017 97.094 L 260.017 97.094 L 260.017 97.094 Q 259.191 96.268 258.1 95.796 L 258.1 95.796 L 258.1 95.796 Q 257.01 95.325 255.772 95.325 L 255.772 95.325 L 255.772 95.325 Q 254.504 95.325 253.384 95.796 L 253.384 95.796 L 253.384 95.796 Q 252.263 96.268 251.438 97.094 L 251.438 97.094 L 251.438 97.094 Q 250.612 97.919 250.141 99.025 L 250.141 99.025 L 250.141 99.025 Q 249.669 100.13 249.669 101.368 L 249.669 101.368 Z  M 309.75 77.135 L 309.75 102.518 L 309.75 102.518 Q 309.75 106.026 308.424 109.107 L 308.424 109.107 L 308.424 109.107 Q 307.097 112.188 304.798 114.472 L 304.798 114.472 L 304.798 114.472 Q 302.498 116.757 299.417 118.084 L 299.417 118.084 L 299.417 118.084 Q 296.337 119.41 292.829 119.41 L 292.829 119.41 L 292.829 119.41 Q 289.32 119.41 286.24 118.084 L 286.24 118.084 L 286.24 118.084 Q 283.159 116.757 280.874 114.472 L 280.874 114.472 L 280.874 114.472 Q 278.589 112.188 277.263 109.107 L 277.263 109.107 L 277.263 109.107 Q 275.936 106.026 275.936 102.518 L 275.936 102.518 L 275.936 77.135 L 284.368 77.135 L 284.368 102.518 L 284.368 102.518 Q 284.368 104.257 285.031 105.79 L 285.031 105.79 L 285.031 105.79 Q 285.694 107.323 286.844 108.473 L 286.844 108.473 L 286.844 108.473 Q 287.994 109.623 289.541 110.286 L 289.541 110.286 L 289.541 110.286 Q 291.089 110.949 292.829 110.949 L 292.829 110.949 L 292.829 110.949 Q 294.568 110.949 296.116 110.286 L 296.116 110.286 L 296.116 110.286 Q 297.663 109.623 298.813 108.473 L 298.813 108.473 L 298.813 108.473 Q 299.963 107.323 300.626 105.79 L 300.626 105.79 L 300.626 105.79 Q 301.289 104.257 301.289 102.518 L 301.289 102.518 L 301.289 77.135 L 309.75 77.135 Z  M 332.981 119.41 L 332.981 119.41 L 314.585 119.41 L 314.585 111.392 L 332.981 111.392 L 332.981 111.392 Q 333.807 111.392 334.396 110.802 L 334.396 110.802 L 334.396 110.802 Q 334.986 110.212 334.986 109.387 L 334.986 109.387 L 334.986 109.387 Q 334.986 108.532 334.396 108.267 L 334.396 108.267 L 334.396 108.267 Q 333.807 108.001 332.981 108.001 L 332.981 108.001 L 324.609 108.001 L 324.609 108.001 Q 322.515 108.001 320.688 107.205 L 320.688 107.205 L 320.688 107.205 Q 318.86 106.409 317.504 105.039 L 317.504 105.039 L 317.504 105.039 Q 316.148 103.668 315.366 101.84 L 315.366 101.84 L 315.366 101.84 Q 314.585 100.012 314.585 97.919 L 314.585 97.919 L 314.585 97.919 Q 314.585 95.826 315.366 93.998 L 315.366 93.998 L 315.366 93.998 Q 316.148 92.17 317.504 90.814 L 317.504 90.814 L 317.504 90.814 Q 318.86 89.458 320.688 88.677 L 320.688 88.677 L 320.688 88.677 Q 322.515 87.896 324.609 87.896 L 324.609 87.896 L 340.911 87.896 L 340.911 95.914 L 324.609 95.914 L 324.609 95.914 Q 323.783 95.914 323.194 96.504 L 323.194 96.504 L 323.194 96.504 Q 322.604 97.094 322.604 97.919 L 322.604 97.919 L 322.604 97.919 Q 322.604 98.774 323.194 99.378 L 323.194 99.378 L 323.194 99.378 Q 323.783 99.983 324.609 99.983 L 324.609 99.983 L 332.981 99.983 L 332.981 99.983 Q 335.045 99.983 336.872 100.676 L 336.872 100.676 L 336.872 100.676 Q 338.7 101.368 340.056 102.606 L 340.056 102.606 L 340.056 102.606 Q 341.412 103.845 342.208 105.584 L 342.208 105.584 L 342.208 105.584 Q 343.004 107.323 343.004 109.387 L 343.004 109.387 L 343.004 109.387 Q 343.004 111.48 342.208 113.293 L 342.208 113.293 L 342.208 113.293 Q 341.412 115.106 340.056 116.477 L 340.056 116.477 L 340.056 116.477 Q 338.7 117.848 336.872 118.629 L 336.872 118.629 L 336.872 118.629 Q 335.045 119.41 332.981 119.41 Z " fill="rgb(14,11,22)"/></svg>