<svg xmlns="http://www.w3.org/2000/svg" xmlns:xlink="http://www.w3.org/1999/xlink" viewBox="0 0 597.76 623.71"><defs><style>.cls-1{fill:url(#linear-gradient);}.cls-2{fill:url(#linear-gradient-2);}.cls-3{fill:url(#linear-gradient-3);}.cls-4{fill:url(#linear-gradient-4);}.cls-5{fill:url(#linear-gradient-5);}.cls-6{fill:url(#linear-gradient-6);}.cls-7{fill:url(#linear-gradient-7);}.cls-8{fill:url(#linear-gradient-8);}.cls-9{fill:url(#linear-gradient-9);}</style><linearGradient id="linear-gradient" y1="311.86" x2="340.29" y2="311.86" gradientUnits="userSpaceOnUse"><stop offset="0.01" stop-color="#00d4ec"/><stop offset="1" stop-color="#88a9c4"/></linearGradient><linearGradient id="linear-gradient-2" x1="111.03" y1="247.16" x2="497.07" y2="607.67" gradientUnits="userSpaceOnUse"><stop offset="0.08" stop-color="#2fd2dd"/><stop offset="1" stop-color="#1f4367"/></linearGradient><linearGradient id="linear-gradient-3" x1="555.44" y1="-50.15" x2="-192.42" y2="475.46" gradientUnits="userSpaceOnUse"><stop offset="0" stop-color="#2fd2dd"/><stop offset="0.1" stop-color="#2ad7e1"/><stop offset="1" stop-color="aqua"/></linearGradient><linearGradient id="linear-gradient-4" x1="359.88" y1="566.08" x2="312.9" y2="114.67" gradientUnits="userSpaceOnUse"><stop offset="0" stop-color="#205072"/><stop offset="0.14" stop-color="#1b6b88"/><stop offset="0.74" stop-color="#08d5dd"/><stop offset="1" stop-color="aqua"/></linearGradient><linearGradient id="linear-gradient-5" x1="105.75" y1="207.02" x2="109.03" y2="207.02" gradientUnits="userSpaceOnUse"><stop offset="0.01" stop-color="#00d4ec"/><stop offset="1" stop-color="#b7ccb3"/></linearGradient><linearGradient id="linear-gradient-6" x1="109.03" y1="140.95" x2="206.58" y2="140.95" xlink:href="#linear-gradient-5"/><linearGradient id="linear-gradient-7" x1="217.66" y1="69.94" x2="224.31" y2="69.94" xlink:href="#linear-gradient-5"/><linearGradient id="linear-gradient-8" x1="237.96" y1="58.12" x2="244.96" y2="58.12" xlink:href="#linear-gradient-5"/><linearGradient id="linear-gradient-9" x1="312.48" y1="31.55" x2="319.31" y2="31.55" xlink:href="#linear-gradient-5"/></defs><title>Asset 1</title><g id="Layer_2" data-name="Layer 2"><g id="Layer_1-2" data-name="Layer 1"><path class="cls-1" d="M56.62,311.84c0-162.7,124.62-296.23,283.67-310.51C330.94.48,321.49,0,311.92,0,139.62,0,0,139.62,0,311.84S139.62,623.71,311.92,623.71c9.57,0,19-.48,28.37-1.33C181.24,608.1,56.62,474.57,56.62,311.84Z"/><path class="cls-2" d="M597.25,489.81l-.61.75A285.6,285.6,0,0,1,373.18,598C219.76,598,94.53,477.27,87.33,325.63c8.87,123,143.61,220.58,308.53,220.58C472.8,546.21,543.17,525,597.25,489.81Z"/><path class="cls-3" d="M536.8,78.36a417.56,417.56,0,0,0-91.94-10.15C259,68.21,106.28,188.78,89.41,342.81Q88,334.3,87.33,325.63q-.43-9-.3-18.08c0-1.63.06-3.26.12-4.88a282.26,282.26,0,0,1,22.08-101A289.34,289.34,0,0,1,217.66,72c2.2-1.44,4.41-2.85,6.65-4.21l2.24-1.36Q232.18,63.07,238,60q3.47-1.89,7-3.66l2.36-1.18c1.57-.78,3.16-1.55,4.75-2.3l2.39-1.11q2.19-1,4.38-2c1.83-.8,3.67-1.58,5.52-2.36l2.24-.91,2.3-.93c1.7-.66,3.4-1.32,5.12-2s3.32-1.22,5-1.81,3.35-1.16,5-1.72l2.53-.82,3-1q3.58-1.11,7.22-2.12l3-.81,2.21-.58,2.6-.66,2.62-.64,2.62-.61,2.63-.59c2.27-.5,4.54-1,6.83-1.4l1.83-.35c.94-.18,1.89-.35,2.84-.51,2.37-.42,4.76-.81,7.15-1.16q1.35-.21,2.7-.39l2.7-.36,2.72-.34c1.81-.22,3.62-.42,5.45-.6l2.62-.25.19,0,2.66-.22c1.83-.15,3.67-.28,5.51-.39l1.46-.08c.83-.05,1.65-.1,2.48-.13,1.23-.06,2.47-.11,3.71-.15l3.44-.1A285,285,0,0,1,524.69,69.09,79.59,79.59,0,0,1,536.8,78.36Z"/><path class="cls-4" d="M597.76,489.17l-.51.64c-54.08,35.15-124.45,56.4-201.39,56.4-157.16,0-286.92-88.66-306.45-203.4,16.87-154,169.57-274.6,355.45-274.6A417.56,417.56,0,0,1,536.8,78.36a78.77,78.77,0,0,1,22,35.92,80.8,80.8,0,0,1-20.46,79.64c-26.59,26.59-67.78,30.78-99.83,11.13a124.68,124.68,0,0,0-67.86-18.36C306.11,188,252.14,239.48,248.18,303.92A125.35,125.35,0,0,0,401.34,433.86h0l.11,0c70-16.17,143.46,2.53,194.27,53.33Z"/><path class="cls-5" d="M109,202.24q-1.57,4.74-3,9.55l-.33-1.37C106.8,207.67,107.9,204.94,109,202.24Z"/><path class="cls-6" d="M109,202.24c.06-.19.13-.38.2-.57a289.17,289.17,0,0,1,97.35-122A289.44,289.44,0,0,0,109,202.24Z"/><path class="cls-7" d="M224.31,67.83c-2.24,1.38-4.45,2.78-6.65,4.21C219.86,70.6,222.07,69.19,224.31,67.83Z"/><path class="cls-8" d="M245,56.29q-3.53,1.78-7,3.66Q241.43,58.06,245,56.29Z"/><path class="cls-9" d="M319.31,30.85c-2.29.44-4.56.9-6.83,1.4C314.75,31.75,317,31.28,319.31,30.85Z"/></g></g></svg>